<svg id="Capa_1" enable-background="new 0 0 512 512" height="512" viewBox="0 0 512 512" width="512" xmlns="http://www.w3.org/2000/svg"><g><g><path d="m410.849 281.737-81.184 81.184-126.525-126.525 83.295-83.294 44.899-.474 22.32-22.32 48.121 33.979 33.979 48.121-22.32 22.321 4.366 25.036c1.398 8.018-1.195 16.216-6.951 21.972z" fill="#fed2a4"/><path d="m401.775 164.286-48.121-33.979-8.485 8.485 60.887 60.887c3.905 3.905 3.905 10.237 0 14.142l-3.092 3.092c-2.302 2.302-3.34 5.581-2.78 8.789l3.474 19.92c1.398 8.019-1.195 16.217-6.951 21.973l-81.184 81.184 14.142 14.142 81.184-81.184c5.756-5.756 8.349-13.954 6.951-21.973l-4.366-25.036 22.32-22.321z" fill="#ffbd86"/><path d="m92.862 307.186c-.559 3.208.478 6.487 2.78 8.789l86.693 86.693 41.219 41.219c8.735 8.735 22.897 8.735 31.631 0 8.734-8.735 8.734-22.896 0-31.632l15.615 15.616c8.735 8.734 22.897 8.734 31.631 0 8.735-8.735 8.735-22.897 0-31.632l15.615 15.615c8.735 8.735 22.896 8.735 31.631 0 8.735-8.735 8.735-22.896 0-31.631l-15.614-15.614c8.735 8.734 22.896 8.733 31.63-.001 8.734-8.735 8.734-22.896 0-31.631l-56.835-56.835-86.693-86.694c-2.302-2.302-5.581-3.34-8.789-2.78l-32.711 5.705-22.321-22.32-48.121 33.979-33.979 48.121 22.32 22.32z" fill="#fff3de"/><g><path d="m166.525 206.516 32.711-5.705c3.208-.559 6.487.478 8.789 2.78l86.693 86.694 56.834 56.835c6.192 6.193 7.989 15.111 5.402 22.891 3.194-1.062 6.198-2.859 8.741-5.402 8.734-8.735 8.734-22.896 0-31.631l-56.835-56.835-86.693-86.694c-2.302-2.302-5.582-3.34-8.789-2.78l-32.711 5.705-22.321-22.32-16.578 11.706z" fill="#ffe5c2"/></g><path d="m492.249 187.449-35.292 35.292c-3.002 3.002-7.868 3.002-10.87 0l-102.766-102.767c-3.002-3.002-3.002-7.868 0-10.87l35.292-35.292c3.002-3.002 7.868-3.002 10.87 0l102.766 102.766c3.001 3.002 3.001 7.869 0 10.871z" fill="#685e68"/><path d="m388.612 63.812-17.677 17.678c3.002-3.002 7.868-3.002 10.87 0l102.766 102.766c3.002 3.002 3.002 7.868 0 10.87l17.678-17.678c3.002-3.002 3.002-7.868 0-10.87l-102.767-102.765c-3.001-3.002-7.868-3.002-10.87-.001z" fill="#554e56"/><circle cx="445.932" cy="166.424" fill="#fed402" r="14.559"/><path d="m331.333 152.627 13.756 11.91-40.728 53.821c-15.033 15.033-39.406 15.033-54.439 0l-34.427 34.427c-8.712 8.712-22.837 8.712-31.548 0-8.712-8.712-8.712-22.837 0-31.549l65.31-65.31 9.21-9.21c6.234-6.234 15.292-8.724 23.836-6.552z" fill="#fed2a4"/><path d="m55.043 262.487-45.292-45.291c-3.002-3.002-3.002-7.868 0-10.87l102.767-102.766c3.002-3.002 7.868-3.002 10.87 0l45.292 45.292c3.002 3.002 3.002 7.868 0 10.87l-102.767 102.765c-3.002 3.002-7.868 3.002-10.87 0z" fill="#8ac9fe"/><path d="m76.363 216.466c-5.686 5.686-14.904 5.686-20.59 0s-5.686-14.904 0-20.59 14.904-5.686 20.59 0c5.685 5.686 5.685 14.904 0 20.59z" fill="#685e68"/></g><g><path d="m507.552 161.272-102.766-102.767c-5.921-5.921-15.556-5.921-21.477 0l-45.292 45.292c-5.921 5.92-5.921 15.555 0 21.477l5.03 5.03-14 14.001-44.896-11.412c-11.051-2.811-22.925.454-30.987 8.517l-37.623 37.623c-1.155-.03-2.312.047-3.451.245l-28.874 5.036-14.263-14.262 5.03-5.03c5.92-5.921 5.92-15.555 0-21.476l-45.293-45.294c-5.921-5.921-15.555-5.919-21.476 0l-28.953 28.953c-2.929 2.929-2.929 7.678 0 10.606 2.929 2.929 7.678 2.929 10.606 0l28.953-28.953c.073-.072.191-.072.264 0l45.291 45.291c.073.073.073.191 0 .264l-102.766 102.767c-.073.072-.191.072-.263 0l-45.292-45.292c-.062-.062-.062-.201 0-.263l50.701-50.701c2.929-2.929 2.929-7.678 0-10.606-2.929-2.929-7.678-2.929-10.606 0l-50.701 50.701c-2.868 2.868-4.448 6.682-4.448 10.738 0 4.057 1.58 7.871 4.448 10.738l45.292 45.292c2.961 2.961 6.849 4.441 10.738 4.441 3.888 0 7.778-1.48 10.738-4.441l5.03-5.03 14.263 14.263-5.036 28.874c-.978 5.606.841 11.356 4.866 15.381l33.849 33.849c1.464 1.465 3.384 2.197 5.303 2.197s3.839-.732 5.303-2.197c2.929-2.929 2.929-7.678 0-10.606l-33.849-33.849c-.575-.575-.835-1.396-.695-2.197l5.705-32.711c.419-2.406-.358-4.865-2.085-6.592l-17.018-17.017 71.494-71.494 17.018 17.017c1.418 1.419 3.332 2.197 5.303 2.197.428 0 .86-.037 1.289-.111l15.574-2.716-18.887 18.887c-11.623 11.622-11.623 30.533 0 42.155 5.63 5.63 13.116 8.73 21.078 8.73s15.448-3.101 21.077-8.73l29.735-29.735 109.858 109.928c5.796 5.796 5.796 15.229 0 21.025s-15.228 5.796-21.023 0c-.002-.002-.003-.003-.005-.005l-39.619-39.619c-2.929-2.929-7.678-2.929-10.606 0-2.929 2.929-2.929 7.678 0 10.606l39.624 39.624 15.614 15.614c2.808 2.808 4.354 6.541 4.354 10.512s-1.546 7.704-4.354 10.512-6.541 4.354-10.512 4.354-7.704-1.546-10.512-4.354l-15.615-15.615-39.623-39.623c-2.929-2.929-7.678-2.929-10.606 0-2.929 2.929-2.929 7.678 0 10.606l39.623 39.623c2.808 2.808 4.354 6.541 4.354 10.512s-1.547 7.705-4.354 10.512c-5.796 5.796-15.229 5.796-21.025 0l-15.583-15.584c-.011-.011-.021-.021-.031-.032-.002-.002-.003-.003-.005-.005l-24.003-24.003c-2.929-2.929-7.678-2.929-10.606 0-2.929 2.929-2.929 7.678 0 10.606l24.008 24.007c5.796 5.797 5.796 15.229 0 21.025-2.808 2.808-6.541 4.354-10.512 4.354s-7.704-1.546-10.512-4.354l-70.951-70.951c-2.929-2.929-7.678-2.929-10.606 0-2.929 2.929-2.929 7.678 0 10.606l70.951 70.951c5.641 5.641 13.141 8.748 21.119 8.748s15.478-3.107 21.119-8.748c3.891-3.891 6.481-8.596 7.771-13.572 11.709 9.133 28.712 8.318 39.475-2.444 3.813-3.813 6.467-8.473 7.788-13.557 5.221 4.078 11.61 6.289 18.34 6.289 7.978 0 15.478-3.107 21.119-8.748s8.748-13.141 8.748-21.119c0-6.737-2.215-13.133-6.301-18.356 4.975-1.292 9.68-3.882 13.569-7.771 10.881-10.882 11.591-28.138 2.137-39.856l10.834-10.834c2.929-2.929 2.929-7.677 0-10.606-2.928-2.929-7.677-2.929-10.606 0l-10.712 10.711-82.332-82.333c10.698-.734 21.186-5.174 29.345-13.334 2.929-2.929 2.929-7.678 0-10.606-2.929-2.929-7.678-2.929-10.606 0-5.854 5.854-13.637 9.078-21.916 9.078-6.099 0-11.925-1.755-16.912-5.016-.017-.011-.034-.021-.05-.032-1.765-1.159-3.426-2.503-4.954-4.03-1.406-1.407-3.314-2.197-5.303-2.197s-3.897.79-5.303 2.197l-34.427 34.427c-2.797 2.797-6.515 4.337-10.471 4.337s-7.674-1.54-10.471-4.337c-5.774-5.774-5.774-15.168 0-20.942l74.521-74.52c4.341-4.341 10.734-6.099 16.685-4.586l49.031 12.463c.06.015.119.022.179.036.139.032.278.06.418.084.114.019.228.035.342.049.123.015.245.027.369.036.129.009.257.016.385.018.052.001.103.007.155.007.059 0 .117-.007.176-.008.134-.003.268-.009.401-.019.11-.008.22-.021.33-.034.127-.016.253-.033.378-.055.121-.021.24-.046.36-.073.11-.025.219-.05.327-.08.134-.036.267-.078.4-.122.091-.03.181-.061.27-.094.142-.053.282-.112.421-.175.079-.035.158-.071.235-.109.138-.068.274-.141.409-.217.079-.045.158-.091.235-.139.123-.076.243-.156.362-.239.09-.063.177-.128.264-.194.099-.077.197-.155.294-.237.103-.087.202-.178.3-.271.047-.044.097-.083.143-.129l17.017-17.017 71.494 71.494-17.017 17.017c-1.727 1.727-2.505 4.186-2.085 6.592l4.366 25.036c.978 5.606-.841 11.356-4.865 15.381l-9.07 9.07c-2.929 2.929-2.929 7.678 0 10.606 1.464 1.464 3.384 2.197 5.303 2.197s3.839-.732 5.303-2.197l9.07-9.07c7.474-7.474 10.852-18.152 9.036-28.564l-3.697-21.199 14.263-14.263 5.03 5.03c2.96 2.96 6.849 4.441 10.738 4.441s7.777-1.48 10.738-4.441l45.292-45.292c2.869-2.868 4.448-6.682 4.448-10.738-.01-4.055-1.59-7.869-4.458-10.736zm-10.607 10.87-45.292 45.292c-.073.072-.192.071-.263 0l-10.333-10.333s0 0 0 0l-82.096-82.096c-.001-.001-.003-.003-.004-.005s-.003-.003-.005-.004l-10.328-10.328c-.073-.073-.073-.191 0-.264l45.292-45.292c.031-.031.082-.046.132-.046s.101.016.132.046l102.767 102.767c.061.062.06.201-.002.263z"/><path d="m430.334 150.822c-8.601 8.601-8.601 22.595 0 31.196 4.167 4.167 9.706 6.461 15.599 6.461s11.432-2.295 15.598-6.461c8.601-8.601 8.601-22.595 0-31.196s-22.596-8.601-31.197 0zm20.589 20.589c-1.333 1.333-3.105 2.068-4.991 2.068s-3.658-.734-4.992-2.068c-2.752-2.752-2.752-7.23 0-9.983 1.376-1.376 3.184-2.064 4.992-2.064s3.615.688 4.992 2.064c2.752 2.753 2.752 7.231-.001 9.983z"/><path d="m50.469 221.765c4.167 4.167 9.706 6.461 15.599 6.461 5.892 0 11.432-2.295 15.598-6.461 8.601-8.601 8.601-22.595 0-31.196-8.602-8.6-22.596-8.6-31.196 0-8.601 8.601-8.601 22.595-.001 31.196zm10.607-20.59c1.376-1.376 3.184-2.064 4.992-2.064s3.615.688 4.992 2.064c2.752 2.752 2.752 7.23 0 9.983-1.333 1.333-3.106 2.068-4.992 2.068s-3.658-.734-4.992-2.068c-2.752-2.752-2.752-7.23 0-9.983z"/></g></g></svg>