<svg height="512pt" viewBox="-16 0 512 512" width="512pt" xmlns="http://www.w3.org/2000/svg"><path d="m297.199219 106.175781-56.75-91.902343-56.75 91.902343zm0 0" fill="#96d1f3"/><path d="m126.949219 238.949219h227l-56.75-91.898438h-113.5zm0 0" fill="#d15573"/><path d="m70.199219 371.726562h340.5l-56.75-91.902343h-227zm0 0" fill="#f8e868"/><path d="m70.199219 412.601562-56.75 91.898438h454l-56.75-91.898438zm0 0" fill="#e2fc85"/><path d="m240.449219 14.273438-56.75 91.902343h30l41.75-67.609375zm0 0" fill="#3ca6e6"/><path d="m183.699219 147.050781-56.75 91.898438h30l56.75-91.898438zm0 0" fill="#c21d44"/><path d="m126.949219 279.824219-56.75 91.902343h30l56.75-91.902343zm0 0" fill="#e0c938"/><path d="m70.199219 412.601562-56.75 91.898438h30l56.75-91.898438zm0 0" fill="#6ad34d"/><path d="m260.449219 333.378906h-15v-15h15zm-25 0h-15.003907v-15h15.003907zm0 0" fill="#fff"/><path d="m240.449219 0-70.199219 113.675781h140.394531zm0 28.550781 43.300781 70.125h-86.605469zm0 0"/><path d="m183.699219 231.449219h-43.304688l47.488281-76.898438h105.132813l47.484375 76.898438h-136.800781v15h163.695312l-66.011719-106.898438h-121.867187l-66.015625 106.898438h70.199219zm0 0"/><path d="m358.132812 272.324219h-235.367187l-66.015625 106.902343h367.394531zm-227 15h218.632813l47.484375 76.898437h-313.605469zm0 0"/><path d="m414.882812 405.097656h-73.148437v15.003906h64.78125l47.484375 76.898438h-427.105469l47.484375-76.898438h247.355469v-15.003906h-255.722656l-66.011719 106.902344h480.894531zm0 0"/></svg>